    <svg viewBox="38 40 128 115" width="128" height="115" xmlns="http://www.w3.org/2000/svg">
        <defs>
          <radialGradient id="v6-glow" cx="50%" cy="50%" r="50%">
            <stop offset="0%" stop-color="#33BECC" stop-opacity="0.15"/>
            <stop offset="100%" stop-color="#33BECC" stop-opacity="0"/>
          </radialGradient>
        </defs>
  
        <!-- Background glow -->
        <circle cx="105" cy="95" r="80" fill="url(#v6-glow)"/>
  
        <!-- Network nodes -->
        <!-- Central node -->
        <circle cx="105" cy="88" r="20" fill="#005871"/>
        <circle cx="105" cy="88" r="23" fill="none" stroke="#33BECC" stroke-width="1.5" opacity="0.4"/>
  
        <!-- Satellite nodes -->
        <circle cx="60" cy="58" r="11" fill="#33BECC"/>
        <circle cx="150" cy="58" r="9" fill="#A47764"/>
        <circle cx="55" cy="115" r="8" fill="#DCD494"/>
        <circle cx="148" cy="120" r="10" fill="#33BECC" opacity="0.7"/>
        <circle cx="105" cy="140" r="7" fill="#A47764" opacity="0.6"/>
        <circle cx="68" cy="82" r="5" fill="#005871" opacity="0.4"/>
        <circle cx="140" cy="85" r="5.5" fill="#DCD494" opacity="0.5"/>
  
        <!-- Connection lines -->
        <line x1="105" y1="88" x2="60" y2="58" stroke="#33BECC" stroke-width="1.5" opacity="0.35"/>
        <line x1="105" y1="88" x2="150" y2="58" stroke="#A47764" stroke-width="1.5" opacity="0.35"/>
        <line x1="105" y1="88" x2="55" y2="115" stroke="#DCD494" stroke-width="1.5" opacity="0.35"/>
        <line x1="105" y1="88" x2="148" y2="120" stroke="#33BECC" stroke-width="1.2" opacity="0.3"/>
        <line x1="105" y1="88" x2="105" y2="140" stroke="#A47764" stroke-width="1.2" opacity="0.3"/>
        <line x1="60" y1="58" x2="55" y2="115" stroke="#005871" stroke-width="1" opacity="0.15"/>
        <line x1="150" y1="58" x2="148" y2="120" stroke="#005871" stroke-width="1" opacity="0.15"/>
  
        <!-- English letter B in center node -->
        <text x="105" y="96" font-family="Rubik, sans-serif" font-weight="700" font-size="22" fill="#fff" text-anchor="middle">B</text>
  
      </svg>